<?xml version="1.0" standalone="no"?><!DOCTYPE svg PUBLIC "-//W3C//DTD SVG 1.1//EN" "http://www.w3.org/Graphics/SVG/1.1/DTD/svg11.dtd" ><svg xmlns="http://www.w3.org/2000/svg"><metadata></metadata><defs><font id="Linotype Library GmbH: Helvetica LT 63 Medium Extended: 2002" horiz-adv-x="1148"><font-face font-family="HelveticaNeue LT 63 MdEx" font-weight="500" font-stretch="normal" units-per-em="1000" panose-1="0 0 4 0 0 0 0 0 0 0" ascent="978" descent="-220" x-height="0" bbox="-52 -220 1154 777" underline-thickness="50" underline-position="-100" unicode-range="U+0027-007a" /><missing-glyph horiz-adv-x="500" d="M63 0 l0 777 l375 0 l0 -777 l-375 0 ZM125 63 l250 0 l0 652 l-250 0 l0 -652 Z" /><glyph glyph-name="quotesingle" unicode="&#39;" d="M126 405 l0 309 l100 0 l0 -309 l-100 0 Z" /><glyph glyph-name="asterisk" unicode="*" d="M71 401 l92 101 l-129 48 l31 81 l123 -49 l0 132 l88 0 l0 -134 l122 51 l31 -81 l-128 -48 l93 -101 l-69 -53 l-95 105 l-93 -105 l-66 53 Z" /><glyph glyph-name="plus" unicode="+" d="M250 0 l0 203 l-203 0 l0 100 l203 0 l0 203 l100 0 l0 -203 l203 0 l0 -100 l-203 0 l0 -203 l-100 0 Z" /><glyph glyph-name="hyphen" unicode="-" d="M64 223 l0 118 l353 0 l0 -118 l-353 0 Z" /><glyph glyph-name="period" unicode="." d="M98 0 l0 142 l156 0 l0 -142 l-156 0 Z" /><glyph glyph-name="slash" unicode="/" d="M-6 -20 l304 754 l114 0 l-304 -754 l-114 0 Z" /><glyph glyph-name="zero" unicode="0" d="M696 347 q0 -165 -80 -260 q-88 -103 -258 -103 q-154 0 -236 103 q-78 96 -78 260 q0 164 81 258 q87 103 257 103 q153 0 237 -103 q77 -96 77 -258 ZM552 347 q0 110 -41 177 q-48 78 -141 78 q-93 0 -140 -78 q-42 -67 -42 -177 q0 -111 42 -179 q47 -78 140 -78 q93 0 141 78 q41 68 41 179 Z" /><glyph glyph-name="one" unicode="1" d="M233 0 l0 480 l-209 0 l0 100 l42 0 q176 0 201 124 l110 0 l0 -704 l-144 0 Z" /><glyph glyph-name="two" unicode="2" d="M675 0 l-631 0 q0 120 84 204 q64 64 194 119 q125 54 157 76 q47 34 47 88 q0 58 -50 90 q-41 25 -93 25 q-160 0 -173 -149 l-150 0 q0 124 88 192 q82 63 217 63 q134 0 216 -52 q95 -62 95 -182 q0 -79 -62 -136 q-47 -43 -142 -81 q-78 -31 -156 -61 q-80 -37 -104 -84 l463 0 l0 -112 Z" /><glyph glyph-name="three" unicode="3" d="M46 222 l144 0 q9 -132 176 -132 q75 0 123.5 30.5 q48.5 30.5 48.5 85.5 q0 110 -162 110 l-84 0 l0 100 l94 0 q128 0 128 85 q0 43 -34 70 q-41 31 -120 31 q-74 0 -114 -38 q-34 -32 -37 -82 l-144 0 q10 119 104 177 q79 49 208 49 q152 0 226 -63 q61 -53 61 -141 q0 -96 -108 -128 l0 -2 q63 -15 100.5 -58.5 q37.5 -43.5 37.5 -100.5 q0 -87 -55 -144 q-82 -87 -275 -87 q-134 0 -215 47 q-102 61 -103 191 Z" /><glyph glyph-name="four" unicode="4" d="M443 258 l0 320 l-2 0 l-264 -320 l266 0 ZM39 152 l0 118 l380 434 l156 0 l0 -446 l126 0 l0 -106 l-126 0 l0 -152 l-132 0 l0 152 l-404 0 Z" /><glyph glyph-name="five" unicode="5" d="M70 313 l66 379 l504 0 l0 -112 l-402 0 l-30 -158 q77 43 184 43 q129 0 209 -55 q87 -61 87 -170 q0 -117 -80 -185 q-85 -71 -244 -71 q-141 0 -226 55 q-85 55 -94 157 l150 0 q25 -106 167 -106 q75 0 121 29 q56 34 56 105 q0 69 -51 107 q-46 34 -118 34 q-97 0 -159 -55 l-140 3 Z" /><glyph glyph-name="six" unicode="6" d="M672 518 l-147 0 q-21 84 -138 84 q-91 0 -142.5 -60 q-51.5 -60 -56.5 -161 q44 44 95 62 q47 16 121 16 q147 0 222 -71 q64 -61 64 -159 q0 -100 -75 -167 q-87 -78 -245 -78 q-326 0 -326 363 q0 135 60 229 q84 132 266 132 q276 0 302 -190 ZM205 221 q0 -57 38 -91 q43 -40 130 -40 q86 0 130 40 q37 34 37 91 q0 57 -37 92 q-44 40 -130 40 q-87 0 -130 -40 q-38 -35 -38 -92 Z" /><glyph glyph-name="seven" unicode="7" d="M16 574 l0 118 l622 0 l0 -121 q-286 -316 -325 -571 l-174 0 q13 130 133 312 q99 150 216 262 l-472 0 Z" /><glyph glyph-name="eight" unicode="8" d="M44 198 q0 143 145 179 l0 2 q-115 34 -115 141 q0 188 296 188 q155 0 230 -56 q65 -48 65 -132 q0 -107 -115 -141 l0 -2 q146 -36 146 -179 q0 -80 -61 -136 q-84 -78 -265 -78 q-181 0 -265 78 q-61 56 -61 136 ZM370 423 q145 0 145 88 q0 91 -145 91 q-146 0 -146 -91 q0 -88 146 -88 ZM200 205 q0 -53 43 -84 q43 -31 127 -31 q84 0 129 32 q41 30 41 83 q0 118 -170 118 q-170 0 -170 -118 Z" /><glyph glyph-name="nine" unicode="9" d="M68 174 l147 0 q21 -84 138 -84 q91 0 144 61 q50 59 55 160 q-44 -44 -95 -61 q-47 -17 -121 -17 q-147 0 -222 71 q-64 61 -64 159 q0 100 75 168 q87 77 245 77 q326 0 326 -363 q0 -135 -60 -229 q-84 -132 -266 -132 q-276 0 -302 190 ZM535 471 q0 57 -37 91 q-44 40 -131 40 q-86 0 -130 -40 q-37 -34 -37 -91 q0 -57 37 -92 q44 -40 130 -40 q87 0 131 40 q37 35 37 92 Z" /><glyph glyph-name="semicolon" unicode=";" d="M98 0 l0 142 l156 0 l0 -108 q0 -180 -156 -201 l0 59 q43 14 58 39 q12 19 16 69 l-74 0 ZM98 381 l0 142 l156 0 l0 -142 l-156 0 Z" /><glyph glyph-name="equal" unicode="=" d="M47 314 l0 100 l506 0 l0 -100 l-506 0 ZM47 92 l0 100 l506 0 l0 -100 l-506 0 Z" /><glyph glyph-name="A" unicode="a" d="M272 289 l246 0 l-122 301 l-124 -301 ZM-9 0 l318 714 l178 0 l318 -714 l-167 0 l-75 177 l-336 0 l-74 -177 l-162 0 Z" /><glyph glyph-name="B" unicode="b" d="M73 0 l0 714 l472 0 q205 0 205 -178 q0 -67 -34 -106 q-20 -23 -63 -43 q130 -40 130 -177 q0 -78 -49 -135 q-65 -75 -194 -75 l-467 0 ZM223 602 l0 -178 l280 0 q97 0 97 91 q0 87 -123 87 l-254 0 ZM223 318 l0 -206 l269 0 q62 0 93 18 q42 25 42 87 q0 48 -30.5 74.5 q-30.5 26.5 -82.5 26.5 l-291 0 Z" /><glyph glyph-name="C" unicode="c" d="M822 450 l-162 0 q-11 80 -73 126 q-62 46 -157 46 q-108 0 -172 -69 q-69 -74 -69 -209 q0 -112 70 -182 q70 -70 181 -70 q105 0 164 62 q45 47 56 119 l162 0 q-43 -293 -408 -293 q-184 0 -287 113 q-94 103 -94 264 q0 163 94 264 q106 113 305 113 q176 0 281 -84 q96 -77 109 -200 Z" /><glyph glyph-name="D" unicode="d" d="M223 602 l0 -490 l211 0 q223 0 223 244 q0 152 -84 210 q-52 36 -147 36 l-203 0 ZM73 0 l0 714 l385 0 q195 0 280 -105 q69 -88 69 -259 q0 -140 -65 -233 q-83 -117 -248 -117 l-421 0 Z" /><glyph glyph-name="E" unicode="e" d="M73 0 l0 714 l620 0 l0 -112 l-470 0 l0 -180 l451 0 l0 -112 l-451 0 l0 -198 l478 0 l0 -112 l-628 0 Z" /><glyph glyph-name="F" unicode="f" d="M73 0 l0 714 l594 0 l0 -112 l-444 0 l0 -180 l420 0 l0 -112 l-420 0 l0 -310 l-150 0 Z" /><glyph glyph-name="G" unicode="g" d="M834 392 l0 -392 l-88 0 l-21 93 q-44 -53 -116 -83 q-72 -30 -156 -30 q-213 0 -323 113 q-97 100 -97 264 q0 163 99 264 q111 113 317 113 q158 0 261 -72 q99 -70 111 -178 l-162 0 q-19 69 -81 105 q-55 33 -133 33 q-256 0 -256 -270 q0 -133 77 -201 q66 -59 171 -59 q209 0 247 188 l-202 0 l0 112 l352 0 Z" /><glyph glyph-name="H" unicode="h" d="M73 0 l0 714 l150 0 l0 -278 l443 0 l0 278 l150 0 l0 -714 l-150 0 l0 324 l-443 0 l0 -324 l-150 0 Z" /><glyph glyph-name="I" unicode="i" d="M73 0 l0 714 l150 0 l0 -714 l-150 0 Z" /><glyph glyph-name="J" unicode="j" d="M407 258 l0 456 l150 0 l0 -498 q0 -96 -49 -155 q-67 -81 -217 -81 q-179 0 -240 99 q-36 57 -36 178 l150 0 q0 -78 16 -110 q27 -55 108 -55 q77 0 103 56 q15 33 15 110 Z" /><glyph glyph-name="K" unicode="k" d="M73 0 l0 714 l150 0 l0 -331 l365 331 l206 0 l-333 -290 l354 -424 l-203 0 l-268 329 l-121 -107 l0 -222 l-150 0 Z" /><glyph glyph-name="L" unicode="l" d="M73 0 l0 714 l150 0 l0 -596 l434 0 l0 -118 l-584 0 Z" /><glyph glyph-name="M" unicode="m" d="M73 0 l0 714 l216 0 l250 -554 l248 554 l214 0 l0 -714 l-141 0 l6 590 l-2 0 l-264 -590 l-128 0 l-262 590 l-2 0 l6 -590 l-141 0 Z" /><glyph glyph-name="N" unicode="n" d="M73 0 l0 714 l172 0 l425 -536 l2 0 l0 536 l144 0 l0 -714 l-169 0 l-428 536 l-2 0 l0 -536 l-144 0 Z" /><glyph glyph-name="O" unicode="o" d="M453 -20 q-213 0 -323 113 q-97 100 -97 264 q0 164 97 264 q110 113 323 113 q213 0 323 -113 q97 -100 97 -264 q0 -164 -97 -264 q-110 -113 -323 -113 ZM453 92 q124 0 195 74 q69 71 69 191 q0 120 -70 192.5 q-70 72.5 -194 72.5 q-124 0 -194 -72.5 q-70 -72.5 -70 -192.5 q0 -120 69 -191 q71 -74 195 -74 Z" /><glyph glyph-name="P" unicode="p" d="M223 602 l0 -218 l241 0 q67 0 97 22 q34 25 34 86 q0 110 -120 110 l-252 0 ZM73 0 l0 714 l440 0 q122 0 182 -68 q50 -57 50 -154 q0 -90 -55 -151 q-62 -69 -175 -69 l-292 0 l0 -272 l-150 0 Z" /><glyph glyph-name="Q" unicode="q" d="M779 -94 l-126 108 q-85 -34 -200 -34 q-213 0 -323 113 q-97 100 -97 264 q0 164 97 264 q110 113 323 113 q213 0 323 -113 q97 -100 97 -264 q0 -185 -120 -285 l98 -83 l-72 -83 ZM546 106 l-66 57 l71 82 l95 -81 q71 71 71 193 q0 120 -70 192.5 q-70 72.5 -194 72.5 q-124 0 -194 -72.5 q-70 -72.5 -70 -192.5 q0 -120 69 -191 q71 -74 195 -74 q55 0 93 14 Z" /><glyph glyph-name="R" unicode="r" d="M73 0 l0 714 l452 0 q241 0 241 -194 q0 -67 -34 -113 q-31 -42 -84 -59 l0 -2 q60 -13 84 -65 q20 -44 20 -128 q0 -113 30 -153 l-162 0 q-18 33 -18 108 q0 88 -21 125 q-27 49 -103 49 l-255 0 l0 -282 l-150 0 ZM223 394 l259 0 q65 0 96.5 23.5 q31.5 23.5 31.5 81.5 q0 103 -128 103 l-259 0 l0 -208 Z" /><glyph glyph-name="S" unicode="s" d="M35 513 q0 113 92 170 q82 51 223 51 q328 0 349 -227 l-162 0 q-4 47 -45 78 q-48 37 -135 37 q-166 0 -166 -98 q0 -66 138 -88 q230 -36 256 -45 q138 -48 138 -179 q0 -125 -114 -185 q-90 -47 -229 -47 q-359 0 -362 251 l162 0 q6 -139 205 -139 q76 0 122 23 q54 27 54 82 q0 71 -136 95 q-245 45 -254 48 q-136 48 -136 173 Z" /><glyph glyph-name="T" unicode="t" d="M268 0 l0 602 l-268 0 l0 112 l686 0 l0 -112 l-268 0 l0 -602 l-150 0 Z" /><glyph glyph-name="U" unicode="u" d="M67 307 l0 407 l150 0 l0 -403 q0 -103 26 -147 q44 -72 173 -72 q130 0 174 72 q26 44 26 147 l0 403 l150 0 l0 -407 q0 -139 -45 -208 q-79 -119 -305 -119 q-225 0 -304 119 q-45 69 -45 208 Z" /><glyph glyph-name="V" unicode="v" d="M302 0 l-318 714 l168 0 l233 -572 l228 572 l162 0 l-314 -714 l-159 0 Z" /><glyph glyph-name="W" unicode="w" d="M231 0 l-237 714 l162 0 l161 -554 l2 0 l178 554 l156 0 l179 -554 l2 0 l164 554 l156 0 l-240 -714 l-162 0 l-178 548 l-2 0 l-179 -548 l-162 0 Z" /><glyph glyph-name="X" unicode="x" d="M-12 0 l291 368 l-272 346 l187 0 l178 -248 l185 248 l181 0 l-277 -346 l292 -368 l-190 0 l-194 263 l-196 -263 l-185 0 Z" /><glyph glyph-name="Y" unicode="y" d="M305 0 l0 272 l-312 442 l183 0 l204 -318 l204 318 l183 0 l-312 -442 l0 -272 l-150 0 Z" /><glyph glyph-name="Z" unicode="z" d="M15 0 l0 109 l492 493 l-458 0 l0 112 l655 0 l0 -109 l-487 -487 l490 0 l0 -118 l-692 0 Z" /><glyph glyph-name="a" unicode="a" d="M625 372 l0 -251 q0 -30 30 -30 q29 0 45 3 l0 -97 q-65 -12 -98 -12 q-90 0 -104 68 q-76 -73 -249 -73 q-103 0 -159.5 44 q-56.5 44 -56.5 122 q0 95 86 135 q48 22 152 32 q148 14 183.5 25 q35.5 11 35.5 42 q0 76 -150 76 q-138 0 -145 -88 l-135 0 q14 99 89 143 q66 39 191 39 q182 0 246 -63 q39 -38 39 -115 ZM487 213 l0 51 q-40 -17 -181 -33 q-75 -9 -104 -28 q-25 -17 -25 -52 q0 -83 111 -83 q74 0 127 29 q72 38 72 116 Z" /><glyph glyph-name="b" unicode="b" d="M366 438 q-90 0 -137 -54 q-41 -47 -41 -121 q0 -75 41 -122 q47 -55 137 -55 q91 0 138 55 q41 47 41 122 q0 74 -41 121 q-47 54 -138 54 ZM56 0 l0 726 l138 0 l0 -272 l2 0 q58 90 203 90 q141 0 221 -90 q69 -79 69 -191 q0 -114 -69 -192 q-80 -91 -221 -91 q-75 0 -139 35 q-55 29 -64 58 l-2 0 l0 -73 l-138 0 Z" /><glyph glyph-name="c" unicode="c" d="M652 344 l-144 0 q-8 42 -48.5 71 q-40.5 29 -98.5 29 q-90 0 -140 -55 q-44 -49 -44 -124 q0 -76 40 -124 q45 -55 129 -55 q75 0 112 30 q29 24 53 87 l144 0 q-20 -140 -145 -194 q-67 -29 -149 -29 q-166 0 -253 88 q-75 76 -75 197 q0 130 88 207.5 q88 77.5 240 77.5 q92 0 165 -36 q107 -53 126 -170 Z" /><glyph glyph-name="d" unicode="d" d="M177 263 q0 -75 41 -122 q47 -55 138 -55 q90 0 137 55 q41 47 41 122 q0 74 -41 121 q-47 54 -137 54 q-91 0 -138 -54 q-41 -47 -41 -121 ZM666 726 l0 -726 l-138 0 l0 73 l-2 0 q-9 -29 -64 -58 q-64 -35 -139 -35 q-141 0 -221 91 q-69 78 -69 192 q0 112 69 191 q80 90 221 90 q145 0 203 -90 l2 0 l0 272 l138 0 Z" /><glyph glyph-name="e" unicode="e" d="M683 230 l-500 0 q3 -57 40 -97 q48 -53 140 -53 q111 0 158 76 l150 0 q-89 -176 -304 -176 q-167 0 -254 87 q-74 75 -74 193 q0 132 88.5 211 q88.5 79 230.5 79 q165 0 251 -92 q74 -80 74 -208 l0 -20 ZM183 318 l356 0 q-12 72 -70 109 q-47 29 -109 29 q-59 0 -104 -28 q-57 -37 -73 -110 Z" /><glyph glyph-name="f" unicode="f" d="M98 0 l0 430 l-109 0 l0 100 l109 0 l0 68 q0 136 159 136 q60 0 124 -4 l0 -100 q-30 4 -71 4 q-46 0 -60 -13 q-14 -13 -14 -50 l0 -41 l145 0 l0 -100 l-145 0 l0 -430 l-138 0 Z" /><glyph glyph-name="g" unicode="g" d="M173 276 q0 -68 42 -111 q50 -53 150 -53 q79 0 128.5 46.5 q49.5 46.5 49.5 119.5 q0 85 -68 128 q-52 32 -122 32 q-78 0 -129 -45.5 q-51 -45.5 -51 -116.5 ZM543 532 l138 0 l0 -514 q0 -105 -70 -166 q-81 -72 -245 -72 q-296 0 -311 173 l144 0 q10 -47 55 -65 q36 -14 108 -14 q181 0 181 153 l0 64 l-3 0 q-89 -85 -216 -85 q-120 0 -200 60 q-95 72 -95 208 q0 112 71 186 q79 84 223 84 q167 0 218 -90 l2 0 l0 78 Z" /><glyph glyph-name="h" unicode="h" d="M56 0 l0 726 l138 0 l0 -276 l2 0 q74 94 209 94 q225 0 225 -184 l0 -360 l-138 0 l0 316 q0 122 -133 122 q-64 0 -109 -34 q-56 -42 -56 -119 l0 -285 l-138 0 Z" /><glyph glyph-name="i" unicode="i" d="M60 0 l0 530 l138 0 l0 -530 l-138 0 ZM60 614 l0 112 l138 0 l0 -112 l-138 0 Z" /><glyph glyph-name="j" unicode="j" d="M60 -20 l0 550 l138 0 l0 -554 q0 -97 -37 -136 q-40 -42 -144 -42 q-21 0 -69 2 l0 106 q28 -2 48 -2 q33 0 48.5 16 q15.5 16 15.5 60 ZM60 614 l0 112 l138 0 l0 -112 l-138 0 Z" /><glyph glyph-name="k" unicode="k" d="M56 0 l0 726 l138 0 l0 -408 l245 212 l195 0 l-245 -200 l266 -330 l-186 0 l-188 242 l-87 -71 l0 -171 l-138 0 Z" /><glyph glyph-name="l" unicode="l" d="M60 0 l0 726 l138 0 l0 -726 l-138 0 Z" /><glyph glyph-name="m" unicode="m" d="M468 0 l0 316 q0 56 -19 82 q-29 40 -111 40 q-50 0 -90 -28 q-54 -38 -54 -115 l0 -295 l-138 0 l0 530 l138 0 l0 -80 l2 0 q74 94 209 94 q145 0 187 -98 q68 98 215 98 q84 0 137 -35 q74 -49 74 -157 l0 -352 l-138 0 l0 316 q0 56 -19 82 q-29 40 -111 40 q-50 0 -90 -28 q-54 -38 -54 -115 l0 -295 l-138 0 Z" /><glyph glyph-name="n" unicode="n" d="M56 0 l0 530 l138 0 l0 -80 l2 0 q74 94 209 94 q225 0 225 -184 l0 -360 l-138 0 l0 316 q0 122 -133 122 q-64 0 -109 -34 q-56 -42 -56 -119 l0 -285 l-138 0 Z" /><glyph glyph-name="o" unicode="o" d="M177 265 q0 -77 42 -124 q48 -55 142 -55 q94 0 142 55 q42 47 42 124 q0 77 -42 124 q-48 55 -142 55 q-94 0 -142 -55 q-42 -47 -42 -124 ZM33 265 q0 121 75 197 q87 88 253 88 q166 0 253 -88 q75 -76 75 -197 q0 -121 -75 -197 q-87 -88 -253 -88 q-166 0 -253 88 q-75 76 -75 197 Z" /><glyph glyph-name="p" unicode="p" d="M366 438 q-90 0 -137 -54 q-41 -47 -41 -121 q0 -75 41 -122 q47 -55 137 -55 q91 0 138 55 q41 47 41 122 q0 74 -41 121 q-47 54 -138 54 ZM56 -202 l0 732 l138 0 l0 -76 l2 0 q58 90 203 90 q141 0 221 -90 q69 -79 69 -191 q0 -114 -69 -192 q-80 -91 -221 -91 q-75 0 -139 35 q-55 29 -64 58 l-2 0 l0 -275 l-138 0 Z" /><glyph glyph-name="q" unicode="q" d="M177 263 q0 -75 41 -122 q47 -55 138 -55 q90 0 137 55 q41 47 41 122 q0 74 -41 121 q-47 54 -137 54 q-91 0 -138 -54 q-41 -47 -41 -121 ZM528 454 l0 76 l138 0 l0 -732 l-138 0 l0 275 l-2 0 q-9 -29 -64 -58 q-64 -35 -139 -35 q-141 0 -221 91 q-69 78 -69 192 q0 112 69 191 q80 90 221 90 q145 0 203 -90 l2 0 Z" /><glyph glyph-name="r" unicode="r" d="M56 0 l0 530 l138 0 l0 -103 l2 0 q72 117 200 117 q25 0 55 -5 l0 -136 q-41 13 -88 13 q-65 0 -111 -34 q-58 -43 -58 -126 l0 -256 l-138 0 Z" /><glyph glyph-name="s" unicode="s" d="M29 166 l150 0 q5 -92 146 -92 q59 0 98 15 q46 18 46 53 q0 32 -30 45 q-33 15 -142 30 q-140 19 -187 44 q-63 34 -63 118 q0 99 99 142 q67 29 166 29 q278 0 287 -182 l-144 0 q-12 88 -150 88 q-55 0 -87.5 -19 q-32.5 -19 -32.5 -42 q0 -32 23.5 -43.5 q23.5 -11.5 122.5 -25.5 q158 -23 209 -46 q79 -35 79 -119 q0 -181 -293 -181 q-291 0 -297 186 Z" /><glyph glyph-name="t" unicode="t" d="M99 148 l0 282 l-110 0 l0 100 l110 0 l0 164 l138 0 l0 -164 l144 0 l0 -100 l-144 0 l0 -242 q0 -52 7 -70 q10 -24 43 -24 q33 0 99 2 l0 -100 q-59 -8 -106 -8 q-116 0 -153 43 q-28 31 -28 117 Z" /><glyph glyph-name="u" unicode="u" d="M56 176 l0 354 l138 0 l0 -302 q0 -70 24 -101 q31 -41 113 -41 q57 0 103 34 q58 43 58 119 l0 291 l138 0 l0 -530 l-138 0 l0 74 l-2 0 q-74 -94 -209 -94 q-225 0 -225 196 Z" /><glyph glyph-name="v" unicode="v" d="M241 0 l-242 530 l156 0 l158 -394 l164 394 l156 0 l-242 -530 l-150 0 Z" /><glyph glyph-name="w" unicode="w" d="M205 0 l-201 530 l150 0 l136 -388 l2 0 l127 388 l144 0 l127 -388 l2 0 l136 388 l150 0 l-201 -530 l-156 0 l-129 368 l-2 0 l-129 -368 l-156 0 Z" /><glyph glyph-name="x" unicode="x" d="M-8 0 l238 273 l-221 257 l178 0 l136 -172 l139 172 l178 0 l-223 -257 l239 -273 l-184 0 l-149 188 l-153 -188 l-178 0 Z" /><glyph glyph-name="y" unicode="y" d="M237 9 l-247 521 l150 0 l170 -379 l166 379 l147 0 l-289 -624 q-31 -68 -67.5 -88 q-36.5 -20 -123.5 -20 q-32 0 -86 2 l0 106 q22 -2 69 -2 q60 0 80 41 l31 64 Z" /><glyph glyph-name="z" unicode="z" d="M22 0 l0 100 l357 324 l-338 0 l0 106 l535 0 l0 -94 l-364 -330 l377 0 l0 -106 l-567 0 Z" /></font>
</defs>
</svg>
